<svg width="147" height="52" viewBox="0 0 147 52" fill="none" xmlns="http://www.w3.org/2000/svg">
<g style="mix-blend-mode:overlay">
<path d="M14.3436 15.7708L24.8088 5.30559L26.6944 7.1912L24.8088 9.07681L28.1087 12.3767L26.2231 14.2623L22.9232 10.9624L21.0376 12.8481L23.866 15.6765L21.9804 17.5621L19.152 14.7337L16.2292 17.6564C17.9441 20.2449 17.6613 23.7668 15.3807 26.0473C12.7772 28.6509 8.55612 28.6509 5.95263 26.0473C3.34912 23.4439 3.34912 19.2228 5.95263 16.6193C8.23324 14.3387 11.7551 14.0559 14.3436 15.7708ZM13.4951 24.1617C15.0572 22.5996 15.0572 20.0671 13.4951 18.5049C11.933 16.9428 9.40034 16.9428 7.83824 18.5049C6.27615 20.0671 6.27615 22.5996 7.83824 24.1617C9.40034 25.7239 11.933 25.7239 13.4951 24.1617Z" fill="white"/>
</g>
<g style="mix-blend-mode:overlay">
<path d="M142 28.6667H143.667C144.127 28.6667 144.5 29.0398 144.5 29.5V39.5C144.5 39.9602 144.127 40.3333 143.667 40.3333H130.333C129.873 40.3333 129.5 39.9602 129.5 39.5V29.5C129.5 29.0398 129.873 28.6667 130.333 28.6667H132V27.8333C132 25.0719 134.239 22.8333 137 22.8333C139.761 22.8333 142 25.0719 142 27.8333V28.6667ZM131.167 30.3333V38.6667H142.833V30.3333H131.167ZM136.167 33.6667H137.833V35.3333H136.167V33.6667ZM132.833 33.6667H134.5V35.3333H132.833V33.6667ZM139.5 33.6667H141.167V35.3333H139.5V33.6667ZM140.333 28.6667V27.8333C140.333 25.9924 138.841 24.5 137 24.5C135.159 24.5 133.667 25.9924 133.667 27.8333V28.6667H140.333Z" fill="white"/>
</g>
<g style="mix-blend-mode:overlay">
<path d="M58 38H59C59.5523 38 60 38.4477 60 39V49C60 49.5523 59.5523 50 59 50H43C42.4477 50 42 49.5523 42 49V39C42 38.4477 42.4477 38 43 38H44V37C44 33.134 47.134 30 51 30C54.866 30 58 33.134 58 37V38ZM44 40V48H58V40H44ZM50 42H52V46H50V42ZM56 38V37C56 34.2386 53.7614 32 51 32C48.2386 32 46 34.2386 46 37V38H56Z" fill="white"/>
</g>
<g style="mix-blend-mode:overlay">
<path d="M92.917 27C92.441 29.8377 89.973 32 87 32C83.6863 32 81 29.3137 81 26C81 22.6863 83.6863 20 87 20C89.973 20 92.441 22.1623 92.917 25H103V27H101V31H99V27H97V31H95V27H92.917ZM87 30C89.2091 30 91 28.2091 91 26C91 23.7909 89.2091 22 87 22C84.7909 22 83 23.7909 83 26C83 28.2091 84.7909 30 87 30Z" fill="white"/>
</g>
</svg>
